{"asset":{"version":"2.0","generator":"Cube Siege editable Blockbench exporter"},"scene":0,"scenes":[{"name":"archer_tower","nodes":[0,1]}],"nodes":[{"name":"Body","mesh":0,"translation":[0.0,0.0,0.0]},{"name":"BowPivot","mesh":1,"translation":[0.0,3.15,0.0]}],"meshes":[{"name":"Body","primitives":[{"attributes":{"POSITION":0,"NORMAL":1},"material":6,"mode":4},{"attributes":{"POSITION":2,"NORMAL":3},"material":2,"mode":4},{"attributes":{"POSITION":4,"NORMAL":5},"material":3,"mode":4},{"attributes":{"POSITION":6,"NORMAL":7},"material":0,"mode":4},{"attributes":{"POSITION":8,"NORMAL":9},"material":1,"mode":4},{"attributes":{"POSITION":10,"NORMAL":11},"material":8,"mode":4},{"attributes":{"POSITION":12,"NORMAL":13},"material":9,"mode":4}]},{"name":"BowPivot","primitives":[{"attributes":{"POSITION":14,"NORMAL":15},"material":2,"mode":4},{"attributes":{"POSITION":16,"NORMAL":17},"material":1,"mode":4},{"attributes":{"POSITION":18,"NORMAL":19},"material":9,"mode":4},{"attributes":{"POSITION":20,"NORMAL":21},"material":4,"mode":4}]}],"accessors":[{"bufferView":0,"componentType":5126,"count":36,"type":"VEC3","min":[-0.58,0.0,-0.58],"max":[0.58,0.26,0.58]},{"bufferView":1,"componentType":5126,"count":36,"type":"VEC3"},{"bufferView":2,"componentType":5126,"count":144,"type":"VEC3","min":[-0.48,0.13000000000000012,-0.48],"max":[0.48,2.93,0.48]},{"bufferView":3,"componentType":5126,"count":144,"type":"VEC3"},{"bufferView":4,"componentType":5126,"count":144,"type":"VEC3","min":[-0.495,0.255,-0.495],"max":[0.495,0.405,0.495]},{"bufferView":5,"componentType":5126,"count":144,"type":"VEC3"},{"bufferView":6,"componentType":5126,"count":216,"type":"VEC3","min":[-0.69,0.5344300850563726,-0.55],"max":[0.69,3.18,0.55]},{"bufferView":7,"componentType":5126,"count":216,"type":"VEC3"},{"bufferView":8,"componentType":5126,"count":288,"type":"VEC3","min":[-0.68,0.4675,-0.68],"max":[0.68,2.94,0.68]},{"bufferView":9,"componentType":5126,"count":288,"type":"VEC3"},{"bufferView":10,"componentType":5126,"count":36,"type":"VEC3","min":[0.265,2.25,0.6425],"max":[0.535,2.73,0.6775]},{"bufferView":11,"componentType":5126,"count":36,"type":"VEC3"},{"bufferView":12,"componentType":5126,"count":36,"type":"VEC3","min":[0.365,2.265,0.6775],"max":[0.435,2.715,0.6925]},{"bufferView":13,"componentType":5126,"count":36,"type":"VEC3"},{"bufferView":14,"componentType":5126,"count":36,"type":"VEC3","min":[-0.07,0.004999999999999893,-0.475],"max":[0.07,0.13500000000000023,0.475]},{"bufferView":15,"componentType":5126,"count":36,"type":"VEC3"},{"bufferView":16,"componentType":5126,"count":36,"type":"VEC3","min":[-0.485,0.010000000000000231,-0.39],"max":[0.485,0.1299999999999999,-0.27]},{"bufferView":17,"componentType":5126,"count":36,"type":"VEC3"},{"bufferView":18,"componentType":5126,"count":36,"type":"VEC3","min":[-0.45,0.0900000000000003,-0.1725],"max":[0.45,0.10999999999999988,-0.1475]},{"bufferView":19,"componentType":5126,"count":36,"type":"VEC3"},{"bufferView":20,"componentType":5126,"count":36,"type":"VEC3","min":[-0.0175,0.1525000000000003,-0.76],"max":[0.0175,0.1875,0.15999999999999998]},{"bufferView":21,"componentType":5126,"count":36,"type":"VEC3"}],"bufferViews":[{"buffer":0,"byteOffset":0,"byteLength":432,"target":34962},{"buffer":0,"byteOffset":432,"byteLength":432,"target":34962},{"buffer":0,"byteOffset":864,"byteLength":1728,"target":34962},{"buffer":0,"byteOffset":2592,"byteLength":1728,"target":34962},{"buffer":0,"byteOffset":4320,"byteLength":1728,"target":34962},{"buffer":0,"byteOffset":6048,"byteLength":1728,"target":34962},{"buffer":0,"byteOffset":7776,"byteLength":2592,"target":34962},{"buffer":0,"byteOffset":10368,"byteLength":2592,"target":34962},{"buffer":0,"byteOffset":12960,"byteLength":3456,"target":34962},{"buffer":0,"byteOffset":16416,"byteLength":3456,"target":34962},{"buffer":0,"byteOffset":19872,"byteLength":432,"target":34962},{"buffer":0,"byteOffset":20304,"byteLength":432,"target":34962},{"buffer":0,"byteOffset":20736,"byteLength":432,"target":34962},{"buffer":0,"byteOffset":21168,"byteLength":432,"target":34962},{"buffer":0,"byteOffset":21600,"byteLength":432,"target":34962},{"buffer":0,"byteOffset":22032,"byteLength":432,"target":34962},{"buffer":0,"byteOffset":22464,"byteLength":432,"target":34962},{"buffer":0,"byteOffset":22896,"byteLength":432,"target":34962},{"buffer":0,"byteOffset":23328,"byteLength":432,"target":34962},{"buffer":0,"byteOffset":23760,"byteLength":432,"target":34962},{"buffer":0,"byteOffset":24192,"byteLength":432,"target":34962},{"buffer":0,"byteOffset":24624,"byteLength":432,"target":34962}],"buffers":[{"byteLength":25056,"uri":"data:application/octet-stream;base64,"}],"materials":[{"name":"wood","pbrMetallicRoughness":{"baseColorFactor":[0.19120168274079138,0.08021982031446832,0.03954623527673284,1],"metallicFactor":0.0,"roughnessFactor":0.85}},{"name":"wood_light","pbrMetallicRoughness":{"baseColorFactor":[0.4232676699860717,0.19806931955994886,0.06662593864377289,1],"metallicFactor":0.0,"roughnessFactor":0.86}},{"name":"wood_dark","pbrMetallicRoughness":{"baseColorFactor":[0.07036009569659588,0.03189603307301153,0.021219010376003555,1],"metallicFactor":0.0,"roughnessFactor":0.9}},{"name":"iron","pbrMetallicRoughness":{"baseColorFactor":[0.09305896284668745,0.11953842798834562,0.162029375639111,1],"metallicFactor":0.68,"roughnessFactor":0.45}},{"name":"steel","pbrMetallicRoughness":{"baseColorFactor":[0.2831487404299921,0.3564001441459435,0.4232676699860717,1],"metallicFactor":0.7,"roughnessFactor":0.38}},{"name":"iron_dark","pbrMetallicRoughness":{"baseColorFactor":[0.0295568344378088,0.043735029256973465,0.06847816984440017,1],"metallicFactor":0.65,"roughnessFactor":0.5}},{"name":"stone","pbrMetallicRoughness":{"baseColorFactor":[0.16826940018969075,0.17788841598362912,0.2195261997292692,1],"metallicFactor":0.0,"roughnessFactor":0.94}},{"name":"stone_light","pbrMetallicRoughness":{"baseColorFactor":[0.31854677812509186,0.3277780980565422,0.3419144249086609,1],"metallicFactor":0.0,"roughnessFactor":0.96}},{"name":"cloth","pbrMetallicRoughness":{"baseColorFactor":[0.05448027644244237,0.14995978981060856,0.19120168274079138,1],"metallicFactor":0.0,"roughnessFactor":0.96}},{"name":"gold","pbrMetallicRoughness":{"baseColorFactor":[0.6239603916750761,0.3419144249086609,0.07227185068231748,1],"metallicFactor":0.55,"roughnessFactor":0.4}},{"name":"coal","pbrMetallicRoughness":{"baseColorFactor":[0.02217388479338738,0.024157632448504756,0.0295568344378088,1],"metallicFactor":0.0,"roughnessFactor":0.96}},{"name":"ember","pbrMetallicRoughness":{"baseColorFactor":[0.8549926081242338,0.09758734714186246,0.021219010376003555,1],"metallicFactor":0.0,"roughnessFactor":0.85},"emissiveFactor":[0.47024593446832863,0.05367304092802436,0.011670455706801955]},{"name":"flame","pbrMetallicRoughness":{"baseColorFactor":[1.0,0.45641102318040466,0.07036009569659588,1],"metallicFactor":0.0,"roughnessFactor":0.82},"emissiveFactor":[0.85,0.3879493697033439,0.05980608134210649]},{"name":"hot","pbrMetallicRoughness":{"baseColorFactor":[1.0,0.8148465722161012,0.32314320911295075,1],"metallicFactor":0.0,"roughnessFactor":0.85},"emissiveFactor":[0.85,0.692619586383686,0.2746717277460081]}]}
