{"asset":{"version":"2.0","generator":"Cube Siege editable Blockbench exporter"},"scene":0,"scenes":[{"name":"iron_wall","nodes":[0]}],"nodes":[{"name":"Body","mesh":0,"translation":[0.0,0.0,0.0]}],"meshes":[{"name":"Body","primitives":[{"attributes":{"POSITION":0,"NORMAL":1},"material":6,"mode":4},{"attributes":{"POSITION":2,"NORMAL":3},"material":5,"mode":4},{"attributes":{"POSITION":4,"NORMAL":5},"material":3,"mode":4},{"attributes":{"POSITION":6,"NORMAL":7},"material":4,"mode":4}]}],"accessors":[{"bufferView":0,"componentType":5126,"count":36,"type":"VEC3","min":[-0.5,0.0,-0.5],"max":[0.5,0.26,0.5]},{"bufferView":1,"componentType":5126,"count":36,"type":"VEC3"},{"bufferView":2,"componentType":5126,"count":36,"type":"VEC3","min":[-0.415,0.27,-0.37],"max":[0.415,1.91,0.37]},{"bufferView":3,"componentType":5126,"count":36,"type":"VEC3"},{"bufferView":4,"componentType":5126,"count":324,"type":"VEC3","min":[-0.46,0.35,-0.45],"max":[0.46,2.0,0.45]},{"bufferView":5,"componentType":5126,"count":324,"type":"VEC3"},{"bufferView":6,"componentType":5126,"count":936,"type":"VEC3","min":[-0.5,0.12,-0.5977055591155379],"max":[0.5,1.94,0.5977055591155379]},{"bufferView":7,"componentType":5126,"count":936,"type":"VEC3"}],"bufferViews":[{"buffer":0,"byteOffset":0,"byteLength":432,"target":34962},{"buffer":0,"byteOffset":432,"byteLength":432,"target":34962},{"buffer":0,"byteOffset":864,"byteLength":432,"target":34962},{"buffer":0,"byteOffset":1296,"byteLength":432,"target":34962},{"buffer":0,"byteOffset":1728,"byteLength":3888,"target":34962},{"buffer":0,"byteOffset":5616,"byteLength":3888,"target":34962},{"buffer":0,"byteOffset":9504,"byteLength":11232,"target":34962},{"buffer":0,"byteOffset":20736,"byteLength":11232,"target":34962}],"buffers":[{"byteLength":31968,"uri":"data:application/octet-stream;base64,"}],"materials":[{"name":"wood","pbrMetallicRoughness":{"baseColorFactor":[0.19120168274079138,0.08021982031446832,0.03954623527673284,1],"metallicFactor":0.0,"roughnessFactor":0.85}},{"name":"wood_light","pbrMetallicRoughness":{"baseColorFactor":[0.4232676699860717,0.19806931955994886,0.06662593864377289,1],"metallicFactor":0.0,"roughnessFactor":0.86}},{"name":"wood_dark","pbrMetallicRoughness":{"baseColorFactor":[0.07036009569659588,0.03189603307301153,0.021219010376003555,1],"metallicFactor":0.0,"roughnessFactor":0.9}},{"name":"iron","pbrMetallicRoughness":{"baseColorFactor":[0.09305896284668745,0.11953842798834562,0.162029375639111,1],"metallicFactor":0.68,"roughnessFactor":0.45}},{"name":"steel","pbrMetallicRoughness":{"baseColorFactor":[0.2831487404299921,0.3564001441459435,0.4232676699860717,1],"metallicFactor":0.7,"roughnessFactor":0.38}},{"name":"iron_dark","pbrMetallicRoughness":{"baseColorFactor":[0.0295568344378088,0.043735029256973465,0.06847816984440017,1],"metallicFactor":0.65,"roughnessFactor":0.5}},{"name":"stone","pbrMetallicRoughness":{"baseColorFactor":[0.16826940018969075,0.17788841598362912,0.2195261997292692,1],"metallicFactor":0.0,"roughnessFactor":0.94}},{"name":"stone_light","pbrMetallicRoughness":{"baseColorFactor":[0.31854677812509186,0.3277780980565422,0.3419144249086609,1],"metallicFactor":0.0,"roughnessFactor":0.96}},{"name":"cloth","pbrMetallicRoughness":{"baseColorFactor":[0.05448027644244237,0.14995978981060856,0.19120168274079138,1],"metallicFactor":0.0,"roughnessFactor":0.96}},{"name":"gold","pbrMetallicRoughness":{"baseColorFactor":[0.6239603916750761,0.3419144249086609,0.07227185068231748,1],"metallicFactor":0.55,"roughnessFactor":0.4}},{"name":"coal","pbrMetallicRoughness":{"baseColorFactor":[0.02217388479338738,0.024157632448504756,0.0295568344378088,1],"metallicFactor":0.0,"roughnessFactor":0.96}},{"name":"ember","pbrMetallicRoughness":{"baseColorFactor":[0.8549926081242338,0.09758734714186246,0.021219010376003555,1],"metallicFactor":0.0,"roughnessFactor":0.85},"emissiveFactor":[0.47024593446832863,0.05367304092802436,0.011670455706801955]},{"name":"flame","pbrMetallicRoughness":{"baseColorFactor":[1.0,0.45641102318040466,0.07036009569659588,1],"metallicFactor":0.0,"roughnessFactor":0.82},"emissiveFactor":[0.85,0.3879493697033439,0.05980608134210649]},{"name":"hot","pbrMetallicRoughness":{"baseColorFactor":[1.0,0.8148465722161012,0.32314320911295075,1],"metallicFactor":0.0,"roughnessFactor":0.85},"emissiveFactor":[0.85,0.692619586383686,0.2746717277460081]}]}
