{"asset":{"version":"2.0","generator":"Cube Siege editable Blockbench exporter"},"scene":0,"scenes":[{"name":"workbench","nodes":[0]}],"nodes":[{"name":"Body","mesh":0,"translation":[0.0,0.0,0.0]}],"meshes":[{"name":"Body","primitives":[{"attributes":{"POSITION":0,"NORMAL":1},"material":2,"mode":4},{"attributes":{"POSITION":2,"NORMAL":3},"material":3,"mode":4},{"attributes":{"POSITION":4,"NORMAL":5},"material":0,"mode":4},{"attributes":{"POSITION":6,"NORMAL":7},"material":1,"mode":4},{"attributes":{"POSITION":8,"NORMAL":9},"material":5,"mode":4},{"attributes":{"POSITION":10,"NORMAL":11},"material":4,"mode":4},{"attributes":{"POSITION":12,"NORMAL":13},"material":8,"mode":4},{"attributes":{"POSITION":14,"NORMAL":15},"material":9,"mode":4}]}],"accessors":[{"bufferView":0,"componentType":5126,"count":180,"type":"VEC3","min":[-0.695,0.0,-0.465],"max":[0.695,1.0575,0.465]},{"bufferView":1,"componentType":5126,"count":180,"type":"VEC3"},{"bufferView":2,"componentType":5126,"count":324,"type":"VEC3","min":[-0.71,0.020000000000000004,-0.48],"max":[0.71,1.26,0.48]},{"bufferView":3,"componentType":5126,"count":324,"type":"VEC3"},{"bufferView":4,"componentType":5126,"count":216,"type":"VEC3","min":[-0.76,0.235,-0.525],"max":[0.76,0.985,0.525]},{"bufferView":5,"componentType":5126,"count":216,"type":"VEC3"},{"bufferView":6,"componentType":5126,"count":72,"type":"VEC3","min":[-0.415,0.835,-0.525],"max":[0.415,0.985,0.525]},{"bufferView":7,"componentType":5126,"count":72,"type":"VEC3"},{"bufferView":8,"componentType":5126,"count":36,"type":"VEC3","min":[-0.595,0.985,-0.205],"max":[-0.08500000000000002,1.095,0.205]},{"bufferView":9,"componentType":5126,"count":36,"type":"VEC3"},{"bufferView":10,"componentType":5126,"count":72,"type":"VEC3","min":[-0.8,1.23,-0.165],"max":[-0.034999999999999976,1.35,0.165]},{"bufferView":11,"componentType":5126,"count":72,"type":"VEC3"},{"bufferView":12,"componentType":5126,"count":36,"type":"VEC3","min":[0.18,0.44,0.4925],"max":[0.56,0.9,0.5275]},{"bufferView":13,"componentType":5126,"count":36,"type":"VEC3"},{"bufferView":14,"componentType":5126,"count":36,"type":"VEC3","min":[0.18,0.4425,0.5225],"max":[0.56,0.4975,0.5475]},{"bufferView":15,"componentType":5126,"count":36,"type":"VEC3"}],"bufferViews":[{"buffer":0,"byteOffset":0,"byteLength":2160,"target":34962},{"buffer":0,"byteOffset":2160,"byteLength":2160,"target":34962},{"buffer":0,"byteOffset":4320,"byteLength":3888,"target":34962},{"buffer":0,"byteOffset":8208,"byteLength":3888,"target":34962},{"buffer":0,"byteOffset":12096,"byteLength":2592,"target":34962},{"buffer":0,"byteOffset":14688,"byteLength":2592,"target":34962},{"buffer":0,"byteOffset":17280,"byteLength":864,"target":34962},{"buffer":0,"byteOffset":18144,"byteLength":864,"target":34962},{"buffer":0,"byteOffset":19008,"byteLength":432,"target":34962},{"buffer":0,"byteOffset":19440,"byteLength":432,"target":34962},{"buffer":0,"byteOffset":19872,"byteLength":864,"target":34962},{"buffer":0,"byteOffset":20736,"byteLength":864,"target":34962},{"buffer":0,"byteOffset":21600,"byteLength":432,"target":34962},{"buffer":0,"byteOffset":22032,"byteLength":432,"target":34962},{"buffer":0,"byteOffset":22464,"byteLength":432,"target":34962},{"buffer":0,"byteOffset":22896,"byteLength":432,"target":34962}],"buffers":[{"byteLength":23328,"uri":"data:application/octet-stream;base64,"}],"materials":[{"name":"wood","pbrMetallicRoughness":{"baseColorFactor":[0.19120168274079138,0.08021982031446832,0.03954623527673284,1],"metallicFactor":0.0,"roughnessFactor":0.85}},{"name":"wood_light","pbrMetallicRoughness":{"baseColorFactor":[0.4232676699860717,0.19806931955994886,0.06662593864377289,1],"metallicFactor":0.0,"roughnessFactor":0.86}},{"name":"wood_dark","pbrMetallicRoughness":{"baseColorFactor":[0.07036009569659588,0.03189603307301153,0.021219010376003555,1],"metallicFactor":0.0,"roughnessFactor":0.9}},{"name":"iron","pbrMetallicRoughness":{"baseColorFactor":[0.09305896284668745,0.11953842798834562,0.162029375639111,1],"metallicFactor":0.68,"roughnessFactor":0.45}},{"name":"steel","pbrMetallicRoughness":{"baseColorFactor":[0.2831487404299921,0.3564001441459435,0.4232676699860717,1],"metallicFactor":0.7,"roughnessFactor":0.38}},{"name":"iron_dark","pbrMetallicRoughness":{"baseColorFactor":[0.0295568344378088,0.043735029256973465,0.06847816984440017,1],"metallicFactor":0.65,"roughnessFactor":0.5}},{"name":"stone","pbrMetallicRoughness":{"baseColorFactor":[0.16826940018969075,0.17788841598362912,0.2195261997292692,1],"metallicFactor":0.0,"roughnessFactor":0.94}},{"name":"stone_light","pbrMetallicRoughness":{"baseColorFactor":[0.31854677812509186,0.3277780980565422,0.3419144249086609,1],"metallicFactor":0.0,"roughnessFactor":0.96}},{"name":"cloth","pbrMetallicRoughness":{"baseColorFactor":[0.05448027644244237,0.14995978981060856,0.19120168274079138,1],"metallicFactor":0.0,"roughnessFactor":0.96}},{"name":"gold","pbrMetallicRoughness":{"baseColorFactor":[0.6239603916750761,0.3419144249086609,0.07227185068231748,1],"metallicFactor":0.55,"roughnessFactor":0.4}},{"name":"coal","pbrMetallicRoughness":{"baseColorFactor":[0.02217388479338738,0.024157632448504756,0.0295568344378088,1],"metallicFactor":0.0,"roughnessFactor":0.96}},{"name":"ember","pbrMetallicRoughness":{"baseColorFactor":[0.8549926081242338,0.09758734714186246,0.021219010376003555,1],"metallicFactor":0.0,"roughnessFactor":0.85},"emissiveFactor":[0.47024593446832863,0.05367304092802436,0.011670455706801955]},{"name":"flame","pbrMetallicRoughness":{"baseColorFactor":[1.0,0.45641102318040466,0.07036009569659588,1],"metallicFactor":0.0,"roughnessFactor":0.82},"emissiveFactor":[0.85,0.3879493697033439,0.05980608134210649]},{"name":"hot","pbrMetallicRoughness":{"baseColorFactor":[1.0,0.8148465722161012,0.32314320911295075,1],"metallicFactor":0.0,"roughnessFactor":0.85},"emissiveFactor":[0.85,0.692619586383686,0.2746717277460081]}]}
