{"asset":{"version":"2.0","generator":"Cube Siege editable Blockbench exporter"},"scene":0,"scenes":[{"name":"boss_gorgon","nodes":[0,1,2,3,4,5]}],"nodes":[{"name":"body","mesh":0,"translation":[0.0,1.1,0.08]},{"name":"head","mesh":1,"translation":[0.0,2.35,-0.45]},{"name":"arm_left","mesh":2,"translation":[-0.88,2.28,0.1]},{"name":"arm_right","mesh":3,"translation":[0.88,2.28,0.1]},{"name":"leg_left","mesh":4,"translation":[-0.48,1.1,0.08]},{"name":"leg_right","mesh":5,"translation":[0.48,1.1,0.08]}],"meshes":[{"name":"body","primitives":[{"attributes":{"POSITION":0,"NORMAL":1},"material":2,"mode":4},{"attributes":{"POSITION":2,"NORMAL":3},"material":0,"mode":4},{"attributes":{"POSITION":4,"NORMAL":5},"material":1,"mode":4},{"attributes":{"POSITION":6,"NORMAL":7},"material":8,"mode":4}]},{"name":"head","primitives":[{"attributes":{"POSITION":8,"NORMAL":9},"material":0,"mode":4},{"attributes":{"POSITION":10,"NORMAL":11},"material":1,"mode":4},{"attributes":{"POSITION":12,"NORMAL":13},"material":2,"mode":4},{"attributes":{"POSITION":14,"NORMAL":15},"material":3,"mode":4},{"attributes":{"POSITION":16,"NORMAL":17},"material":9,"mode":4},{"attributes":{"POSITION":18,"NORMAL":19},"material":10,"mode":4},{"attributes":{"POSITION":20,"NORMAL":21},"material":7,"mode":4},{"attributes":{"POSITION":22,"NORMAL":23},"material":5,"mode":4},{"attributes":{"POSITION":24,"NORMAL":25},"material":6,"mode":4}]},{"name":"arm_left","primitives":[{"attributes":{"POSITION":26,"NORMAL":27},"material":0,"mode":4},{"attributes":{"POSITION":28,"NORMAL":29},"material":1,"mode":4},{"attributes":{"POSITION":30,"NORMAL":31},"material":4,"mode":4},{"attributes":{"POSITION":32,"NORMAL":33},"material":2,"mode":4}]},{"name":"arm_right","primitives":[{"attributes":{"POSITION":34,"NORMAL":35},"material":0,"mode":4},{"attributes":{"POSITION":36,"NORMAL":37},"material":1,"mode":4},{"attributes":{"POSITION":38,"NORMAL":39},"material":4,"mode":4},{"attributes":{"POSITION":40,"NORMAL":41},"material":2,"mode":4}]},{"name":"leg_left","primitives":[{"attributes":{"POSITION":42,"NORMAL":43},"material":2,"mode":4},{"attributes":{"POSITION":44,"NORMAL":45},"material":1,"mode":4},{"attributes":{"POSITION":46,"NORMAL":47},"material":0,"mode":4},{"attributes":{"POSITION":48,"NORMAL":49},"material":3,"mode":4},{"attributes":{"POSITION":50,"NORMAL":51},"material":7,"mode":4}]},{"name":"leg_right","primitives":[{"attributes":{"POSITION":52,"NORMAL":53},"material":2,"mode":4},{"attributes":{"POSITION":54,"NORMAL":55},"material":1,"mode":4},{"attributes":{"POSITION":56,"NORMAL":57},"material":0,"mode":4},{"attributes":{"POSITION":58,"NORMAL":59},"material":3,"mode":4},{"attributes":{"POSITION":60,"NORMAL":61},"material":7,"mode":4}]}],"accessors":[{"bufferView":0,"componentType":5126,"count":144,"type":"VEC3","min":[-0.7569835902706438,-0.20000000000000007,-0.71],"max":[0.7569835902706438,1.7695815213915727,0.8293670534468173]},{"bufferView":1,"componentType":5126,"count":144,"type":"VEC3"},{"bufferView":2,"componentType":5126,"count":36,"type":"VEC3","min":[-0.73,0.1299999999999999,-0.57],"max":[0.73,1.4899999999999998,0.65]},{"bufferView":3,"componentType":5126,"count":36,"type":"VEC3"},{"bufferView":4,"componentType":5126,"count":108,"type":"VEC3","min":[-0.5892319687593867,-0.006227606978311817,-0.725],"max":[0.5892319687593867,1.44,-0.395]},{"bufferView":5,"componentType":5126,"count":108,"type":"VEC3"},{"bufferView":6,"componentType":5126,"count":72,"type":"VEC3","min":[-0.035,0.4949999999999999,-0.758],"max":[0.25,1.145,-0.728]},{"bufferView":7,"componentType":5126,"count":72,"type":"VEC3"},{"bufferView":8,"componentType":5126,"count":108,"type":"VEC3","min":[-0.585898632253457,-0.33161759540897684,-0.6600000000000001],"max":[0.585898632253457,0.45500000000000007,0.22000000000000003]},{"bufferView":9,"componentType":5126,"count":108,"type":"VEC3"},{"bufferView":10,"componentType":5126,"count":144,"type":"VEC3","min":[-0.4907858489727691,-0.48,-0.73],"max":[0.4907858489727691,0.5654551570706103,0.09844057514363397]},{"bufferView":11,"componentType":5126,"count":144,"type":"VEC3"},{"bufferView":12,"componentType":5126,"count":36,"type":"VEC3","min":[-0.455,-0.3700000000000001,-0.79],"max":[0.455,-0.03000000000000025,-0.33]},{"bufferView":13,"componentType":5126,"count":36,"type":"VEC3"},{"bufferView":14,"componentType":5126,"count":108,"type":"VEC3","min":[-0.47,-0.20999999999999996,-0.8500000000000001],"max":[0.47,0.22999999999999998,-0.5135000000000001]},{"bufferView":15,"componentType":5126,"count":108,"type":"VEC3"},{"bufferView":16,"componentType":5126,"count":72,"type":"VEC3","min":[-0.415,0.06000000000000005,-0.6125],"max":[0.415,0.17999999999999972,-0.5775000000000001]},{"bufferView":17,"componentType":5126,"count":72,"type":"VEC3"},{"bufferView":18,"componentType":5126,"count":72,"type":"VEC3","min":[-0.33,0.06999999999999984,-0.625],"max":[0.33,0.16999999999999993,-0.605]},{"bufferView":19,"componentType":5126,"count":72,"type":"VEC3"},{"bufferView":20,"componentType":5126,"count":72,"type":"VEC3","min":[-0.7,0.22999999999999998,-0.29],"max":[0.7,0.5099999999999998,0.030000000000000027]},{"bufferView":21,"componentType":5126,"count":72,"type":"VEC3"},{"bufferView":22,"componentType":5126,"count":72,"type":"VEC3","min":[-0.8772206882227558,0.2679707499728621,-0.25499999999999995],"max":[0.8772206882227558,0.7120292500271375,-0.0050000000000000044]},{"bufferView":23,"componentType":5126,"count":72,"type":"VEC3"},{"bufferView":24,"componentType":5126,"count":72,"type":"VEC3","min":[-1.089949302741501,0.46275479583158985,-0.41363957357804587],"max":[1.089949302741501,0.9172452041684096,-0.06636042642195411]},{"bufferView":25,"componentType":5126,"count":72,"type":"VEC3"},{"bufferView":26,"componentType":5126,"count":72,"type":"VEC3","min":[-0.36380072875667724,-1.2246741953841673,-0.54],"max":[0.3038007287566774,0.41210000230684507,0.54]},{"bufferView":27,"componentType":5126,"count":72,"type":"VEC3"},{"bufferView":28,"componentType":5126,"count":72,"type":"VEC3","min":[-0.32500000000000007,-1.2849999999999997,-0.615],"max":[0.21158164659398337,0.4924283511045733,0.485]},{"bufferView":29,"componentType":5126,"count":72,"type":"VEC3"},{"bufferView":30,"componentType":5126,"count":36,"type":"VEC3","min":[-0.20000000000000007,0.4525000000000001,0.07999999999999999],"max":[0.09999999999999998,0.48750000000000027,0.4600000000000001]},{"bufferView":31,"componentType":5126,"count":36,"type":"VEC3"},{"bufferView":32,"componentType":5126,"count":72,"type":"VEC3","min":[-0.35,-1.4749999999999996,-0.5650000000000001],"max":[0.17000000000000004,-0.16999999999999993,0.225]},{"bufferView":33,"componentType":5126,"count":72,"type":"VEC3"},{"bufferView":34,"componentType":5126,"count":72,"type":"VEC3","min":[-0.3038007287566774,-1.2246741953841673,-0.54],"max":[0.36380072875667724,0.41210000230684507,0.54]},{"bufferView":35,"componentType":5126,"count":72,"type":"VEC3"},{"bufferView":36,"componentType":5126,"count":72,"type":"VEC3","min":[-0.21158164659398337,-1.2849999999999997,-0.615],"max":[0.32500000000000007,0.4924283511045733,0.485]},{"bufferView":37,"componentType":5126,"count":72,"type":"VEC3"},{"bufferView":38,"componentType":5126,"count":36,"type":"VEC3","min":[-0.09999999999999998,0.4525000000000001,0.07999999999999999],"max":[0.20000000000000007,0.48750000000000027,0.4600000000000001]},{"bufferView":39,"componentType":5126,"count":36,"type":"VEC3"},{"bufferView":40,"componentType":5126,"count":72,"type":"VEC3","min":[-0.17000000000000004,-1.4749999999999996,-0.5650000000000001],"max":[0.35,-0.16999999999999993,0.225]},{"bufferView":41,"componentType":5126,"count":72,"type":"VEC3"},{"bufferView":42,"componentType":5126,"count":36,"type":"VEC3","min":[-0.235,-0.32500000000000007,-0.23500000000000004],"max":[0.235,0.10499999999999998,0.33499999999999996]},{"bufferView":43,"componentType":5126,"count":36,"type":"VEC3"},{"bufferView":44,"componentType":5126,"count":72,"type":"VEC3","min":[-0.265,-1.09,-0.6405],"max":[0.265,-0.18500000000000005,0.09500000000000001]},{"bufferView":45,"componentType":5126,"count":72,"type":"VEC3"},{"bufferView":46,"componentType":5126,"count":36,"type":"VEC3","min":[-0.21499999999999997,-0.8350000000000001,-0.24],"max":[0.21499999999999997,-0.44500000000000006,0.2]},{"bufferView":47,"componentType":5126,"count":36,"type":"VEC3"},{"bufferView":48,"componentType":5126,"count":36,"type":"VEC3","min":[-0.31000000000000005,-1.1,-0.625],"max":[0.30999999999999994,-0.7200000000000001,0.20499999999999996]},{"bufferView":49,"componentType":5126,"count":36,"type":"VEC3"},{"bufferView":50,"componentType":5126,"count":36,"type":"VEC3","min":[-0.32000000000000006,-0.8075000000000001,-0.62],"max":[0.31999999999999995,-0.7325000000000002,0.16000000000000003]},{"bufferView":51,"componentType":5126,"count":36,"type":"VEC3"},{"bufferView":52,"componentType":5126,"count":36,"type":"VEC3","min":[-0.235,-0.32500000000000007,-0.23500000000000004],"max":[0.235,0.10499999999999998,0.33499999999999996]},{"bufferView":53,"componentType":5126,"count":36,"type":"VEC3"},{"bufferView":54,"componentType":5126,"count":72,"type":"VEC3","min":[-0.265,-1.09,-0.6405],"max":[0.265,-0.18500000000000005,0.09500000000000001]},{"bufferView":55,"componentType":5126,"count":72,"type":"VEC3"},{"bufferView":56,"componentType":5126,"count":36,"type":"VEC3","min":[-0.21499999999999997,-0.8350000000000001,-0.24],"max":[0.21499999999999997,-0.44500000000000006,0.2]},{"bufferView":57,"componentType":5126,"count":36,"type":"VEC3"},{"bufferView":58,"componentType":5126,"count":36,"type":"VEC3","min":[-0.30999999999999994,-1.1,-0.625],"max":[0.31000000000000005,-0.7200000000000001,0.20499999999999996]},{"bufferView":59,"componentType":5126,"count":36,"type":"VEC3"},{"bufferView":60,"componentType":5126,"count":36,"type":"VEC3","min":[-0.31999999999999995,-0.8075000000000001,-0.62],"max":[0.32000000000000006,-0.7325000000000002,0.16000000000000003]},{"bufferView":61,"componentType":5126,"count":36,"type":"VEC3"}],"bufferViews":[{"buffer":0,"byteOffset":0,"byteLength":1728,"target":34962},{"buffer":0,"byteOffset":1728,"byteLength":1728,"target":34962},{"buffer":0,"byteOffset":3456,"byteLength":432,"target":34962},{"buffer":0,"byteOffset":3888,"byteLength":432,"target":34962},{"buffer":0,"byteOffset":4320,"byteLength":1296,"target":34962},{"buffer":0,"byteOffset":5616,"byteLength":1296,"target":34962},{"buffer":0,"byteOffset":6912,"byteLength":864,"target":34962},{"buffer":0,"byteOffset":7776,"byteLength":864,"target":34962},{"buffer":0,"byteOffset":8640,"byteLength":1296,"target":34962},{"buffer":0,"byteOffset":9936,"byteLength":1296,"target":34962},{"buffer":0,"byteOffset":11232,"byteLength":1728,"target":34962},{"buffer":0,"byteOffset":12960,"byteLength":1728,"target":34962},{"buffer":0,"byteOffset":14688,"byteLength":432,"target":34962},{"buffer":0,"byteOffset":15120,"byteLength":432,"target":34962},{"buffer":0,"byteOffset":15552,"byteLength":1296,"target":34962},{"buffer":0,"byteOffset":16848,"byteLength":1296,"target":34962},{"buffer":0,"byteOffset":18144,"byteLength":864,"target":34962},{"buffer":0,"byteOffset":19008,"byteLength":864,"target":34962},{"buffer":0,"byteOffset":19872,"byteLength":864,"target":34962},{"buffer":0,"byteOffset":20736,"byteLength":864,"target":34962},{"buffer":0,"byteOffset":21600,"byteLength":864,"target":34962},{"buffer":0,"byteOffset":22464,"byteLength":864,"target":34962},{"buffer":0,"byteOffset":23328,"byteLength":864,"target":34962},{"buffer":0,"byteOffset":24192,"byteLength":864,"target":34962},{"buffer":0,"byteOffset":25056,"byteLength":864,"target":34962},{"buffer":0,"byteOffset":25920,"byteLength":864,"target":34962},{"buffer":0,"byteOffset":26784,"byteLength":864,"target":34962},{"buffer":0,"byteOffset":27648,"byteLength":864,"target":34962},{"buffer":0,"byteOffset":28512,"byteLength":864,"target":34962},{"buffer":0,"byteOffset":29376,"byteLength":864,"target":34962},{"buffer":0,"byteOffset":30240,"byteLength":432,"target":34962},{"buffer":0,"byteOffset":30672,"byteLength":432,"target":34962},{"buffer":0,"byteOffset":31104,"byteLength":864,"target":34962},{"buffer":0,"byteOffset":31968,"byteLength":864,"target":34962},{"buffer":0,"byteOffset":32832,"byteLength":864,"target":34962},{"buffer":0,"byteOffset":33696,"byteLength":864,"target":34962},{"buffer":0,"byteOffset":34560,"byteLength":864,"target":34962},{"buffer":0,"byteOffset":35424,"byteLength":864,"target":34962},{"buffer":0,"byteOffset":36288,"byteLength":432,"target":34962},{"buffer":0,"byteOffset":36720,"byteLength":432,"target":34962},{"buffer":0,"byteOffset":37152,"byteLength":864,"target":34962},{"buffer":0,"byteOffset":38016,"byteLength":864,"target":34962},{"buffer":0,"byteOffset":38880,"byteLength":432,"target":34962},{"buffer":0,"byteOffset":39312,"byteLength":432,"target":34962},{"buffer":0,"byteOffset":39744,"byteLength":864,"target":34962},{"buffer":0,"byteOffset":40608,"byteLength":864,"target":34962},{"buffer":0,"byteOffset":41472,"byteLength":432,"target":34962},{"buffer":0,"byteOffset":41904,"byteLength":432,"target":34962},{"buffer":0,"byteOffset":42336,"byteLength":432,"target":34962},{"buffer":0,"byteOffset":42768,"byteLength":432,"target":34962},{"buffer":0,"byteOffset":43200,"byteLength":432,"target":34962},{"buffer":0,"byteOffset":43632,"byteLength":432,"target":34962},{"buffer":0,"byteOffset":44064,"byteLength":432,"target":34962},{"buffer":0,"byteOffset":44496,"byteLength":432,"target":34962},{"buffer":0,"byteOffset":44928,"byteLength":864,"target":34962},{"buffer":0,"byteOffset":45792,"byteLength":864,"target":34962},{"buffer":0,"byteOffset":46656,"byteLength":432,"target":34962},{"buffer":0,"byteOffset":47088,"byteLength":432,"target":34962},{"buffer":0,"byteOffset":47520,"byteLength":432,"target":34962},{"buffer":0,"byteOffset":47952,"byteLength":432,"target":34962},{"buffer":0,"byteOffset":48384,"byteLength":432,"target":34962},{"buffer":0,"byteOffset":48816,"byteLength":432,"target":34962}],"buffers":[{"byteLength":49248,"uri":"data:application/octet-stream;base64,"}],"materials":[{"name":"stone","pbrMetallicRoughness":{"baseColorFactor":[0.09989872824711389,0.13286832155381798,0.14702726649759498,1],"metallicFactor":0.0,"roughnessFactor":0.92}},{"name":"stone_light","pbrMetallicRoughness":{"baseColorFactor":[0.2831487404299921,0.3277780980565422,0.2831487404299921,1],"metallicFactor":0.0,"roughnessFactor":0.94}},{"name":"stone_shadow","pbrMetallicRoughness":{"baseColorFactor":[0.04091519690685319,0.06480326669290577,0.07618538148130785,1],"metallicFactor":0.0,"roughnessFactor":0.94}},{"name":"basalt","pbrMetallicRoughness":{"baseColorFactor":[0.018500220128379697,0.028426039504420793,0.03433980680868217,1],"metallicFactor":0.0,"roughnessFactor":0.92}},{"name":"moss","pbrMetallicRoughness":{"baseColorFactor":[0.08021982031446832,0.12743768043564743,0.06480326669290577,1],"metallicFactor":0.0,"roughnessFactor":0.96}},{"name":"horn","pbrMetallicRoughness":{"baseColorFactor":[0.4286904966139066,0.35153259950043936,0.23074004852434915,1],"metallicFactor":0.0,"roughnessFactor":0.9}},{"name":"horn_tip","pbrMetallicRoughness":{"baseColorFactor":[0.6795424696330938,0.5972017883637634,0.4178850708481375,1],"metallicFactor":0.0,"roughnessFactor":0.91}},{"name":"bronze","pbrMetallicRoughness":{"baseColorFactor":[0.2581828529215958,0.12743768043564743,0.06124605423161761,1],"metallicFactor":0.22,"roughnessFactor":0.75}},{"name":"ember","pbrMetallicRoughness":{"baseColorFactor":[0.8549926081242338,0.13843161503245183,0.024157632448504756,1],"metallicFactor":0.0,"roughnessFactor":0.82},"emissiveFactor":[0.47024593446832863,0.07613738826784851,0.013286697846677617]},{"name":"flame","pbrMetallicRoughness":{"baseColorFactor":[1.0,0.4969329950608704,0.08021982031446832,1],"metallicFactor":0.0,"roughnessFactor":0.8},"emissiveFactor":[0.85,0.42239304580173986,0.06818684726729807]},{"name":"hot","pbrMetallicRoughness":{"baseColorFactor":[1.0,0.7912979403326302,0.3613067797835095,1],"metallicFactor":0.0,"roughnessFactor":0.78},"emissiveFactor":[0.85,0.6726032492827356,0.3071107628159831]}]}
